{
  "accessors": [
    {
      "bufferView": 2,
      "componentType": 5126,
      "count": 4383,
      "max": [
        44.03762435913086,
        77.77366638183594,
        10.873855590820313
      ],
      "min": [
        -37.33109664916992,
        -55.8296012878418,
        -120.74398040771484
      ],
      "type": "VEC3"
    },
    {
      "bufferView": 2,
      "byteOffset": 52596,
      "componentType": 5126,
      "count": 4383,
      "max": [
        1.0,
        1.0,
        1.0
      ],
      "min": [
        -1.0,
        -1.0,
        -1.0
      ],
      "type": "VEC3"
    },
    {
      "bufferView": 1,
      "componentType": 5126,
      "count": 4383,
      "max": [
        1.994512915611267,
        0.9977926015853882
      ],
      "min": [
        0.0036298357881605625,
        0.006687036715447903
      ],
      "type": "VEC2"
    },
    {
      "bufferView": 1,
      "byteOffset": 35064,
      "componentType": 5126,
      "count": 4383,
      "max": [
        0.9979999661445618,
        0.9971517324447632
      ],
      "min": [
        0.0020000000949949026,
        0.0020000000949949026
      ],
      "type": "VEC2"
    },
    {
      "bufferView": 0,
      "componentType": 5125,
      "count": 11268,
      "type": "SCALAR"
    },
    {
      "bufferView": 2,
      "byteOffset": 105192,
      "componentType": 5126,
      "count": 17609,
      "max": [
        75.49369812011719,
        103.2688980102539,
        103.9346923828125
      ],
      "min": [
        -75.49369812011719,
        -103.26889038085938,
        -103.9346923828125
      ],
      "type": "VEC3"
    },
    {
      "bufferView": 2,
      "byteOffset": 316500,
      "componentType": 5126,
      "count": 17609,
      "max": [
        0.9998705387115479,
        0.9999775886535645,
        0.9998832941055298
      ],
      "min": [
        -0.9999390840530396,
        -0.9997893571853638,
        -0.9997171759605408
      ],
      "type": "VEC3"
    },
    {
      "bufferView": 1,
      "byteOffset": 70128,
      "componentType": 5126,
      "count": 17609,
      "max": [
        1.994286060333252,
        0.9924255013465881
      ],
      "min": [
        0.0056285858154296875,
        0.007850218564271927
      ],
      "type": "VEC2"
    },
    {
      "bufferView": 1,
      "byteOffset": 211000,
      "componentType": 5126,
      "count": 17609,
      "max": [
        0.9992302060127258,
        0.9983130097389221
      ],
      "min": [
        0.001656227745115757,
        0.0020324476063251495
      ],
      "type": "VEC2"
    },
    {
      "bufferView": 0,
      "byteOffset": 45072,
      "componentType": 5125,
      "count": 66546,
      "type": "SCALAR"
    }
  ],
  "asset": {
    "extras": {
      "author": "Tristan (https://sketchfab.com/tristanclarysse)",
      "license": "CC-BY-4.0 (http://creativecommons.org/licenses/by/4.0/)",
      "source": "https://sketchfab.com/3d-models/pirate-a-chest-a-94c560bc25c34d4caeabb217bafeb467",
      "title": "Pirate A Chest A"
    },
    "generator": "Sketchfab-12.68.0",
    "version": "2.0"
  },
  "bufferViews": [
    {
      "buffer": 0,
      "byteLength": 311256,
      "name": "floatBufferViews",
      "target": 34963
    },
    {
      "buffer": 0,
      "byteLength": 351872,
      "byteOffset": 311256,
      "byteStride": 8,
      "name": "floatBufferViews",
      "target": 34962
    },
    {
      "buffer": 0,
      "byteLength": 527808,
      "byteOffset": 663128,
      "byteStride": 12,
      "name": "floatBufferViews",
      "target": 34962
    }
  ],
  "buffers": [
    {
      "byteLength": 1190936,
      "uri": "scene.bin"
    }
  ],
  "images": [
    {
      "uri": "textures/Txt_Pirate_A_Chest_A_A_baseColor.png"
    },
    {
      "uri": "textures/Txt_Pirate_A_Octopus_A_baseColor.png"
    }
  ],
  "materials": [
    {
      "doubleSided": true,
      "name": "Txt_Pirate_A_Chest_A_A",
      "pbrMetallicRoughness": {
        "baseColorTexture": {
          "index": 0
        },
        "metallicFactor": 0.0,
        "roughnessFactor": 0.6
      }
    },
    {
      "doubleSided": true,
      "name": "Txt_Pirate_A_Octopus_A",
      "pbrMetallicRoughness": {
        "baseColorTexture": {
          "index": 1
        },
        "metallicFactor": 0.0,
        "roughnessFactor": 0.6
      }
    }
  ],
  "meshes": [
    {
      "name": "Object_0",
      "primitives": [
        {
          "attributes": {
            "NORMAL": 1,
            "POSITION": 0,
            "TEXCOORD_0": 2,
            "TEXCOORD_1": 3
          },
          "indices": 4,
          "material": 0,
          "mode": 4
        }
      ]
    },
    {
      "name": "Object_1",
      "primitives": [
        {
          "attributes": {
            "NORMAL": 6,
            "POSITION": 5,
            "TEXCOORD_0": 7,
            "TEXCOORD_1": 8
          },
          "indices": 9,
          "material": 1,
          "mode": 4
        }
      ]
    }
  ],
  "nodes": [
    {
      "children": [
        1
      ],
      "matrix": [
        1.0,
        0.0,
        0.0,
        0.0,
        0.0,
        2.220446049250313e-16,
        -1.0,
        0.0,
        0.0,
        1.0,
        2.220446049250313e-16,
        0.0,
        0.0,
        0.0,
        0.0,
        1.0
      ],
      "name": "Sketchfab_model"
    },
    {
      "children": [
        2
      ],
      "matrix": [
        1.0,
        0.0,
        0.0,
        0.0,
        0.0,
        0.0,
        1.0,
        0.0,
        0.0,
        -1.0,
        0.0,
        0.0,
        0.0,
        0.0,
        0.0,
        1.0
      ],
      "name": "Pirate_A_Chest_A.FBX"
    },
    {
      "children": [
        3
      ],
      "name": "Object_2"
    },
    {
      "children": [
        4,
        6
      ],
      "name": "RootNode"
    },
    {
      "children": [
        5
      ],
      "name": "Txt_Pirate_A_Chest_A_A",
      "rotation": [
        -0.5002231597900391,
        0.5002233386039734,
        -0.4997768998146057,
        -0.4997764229774475
      ],
      "scale": [
        1.0870749950408936,
        1.0870752334594727,
        1.0870749950408936
      ],
      "translation": [
        12.616962432861328,
        12.594528198242188,
        -1.2988548278808594
      ]
    },
    {
      "mesh": 0,
      "name": "Object_5"
    },
    {
      "children": [
        7
      ],
      "name": "Txt_Pirate_A_Octopus_A",
      "rotation": [
        -0.6492679715156555,
        0.1936524212360382,
        0.43932443857192993,
        0.5898676514625549
      ],
      "translation": [
        -17.343109130859375,
        94.59880065917969,
        60.63666915893555
      ]
    },
    {
      "mesh": 1,
      "name": "Object_7"
    }
  ],
  "samplers": [
    {
      "magFilter": 9729,
      "minFilter": 9987,
      "wrapS": 10497,
      "wrapT": 10497
    }
  ],
  "scene": 0,
  "scenes": [
    {
      "name": "Sketchfab_Scene",
      "nodes": [
        0
      ]
    }
  ],
  "textures": [
    {
      "sampler": 0,
      "source": 0
    },
    {
      "sampler": 0,
      "source": 1
    }
  ]
}
